<?xml version="1.0" standalone="no"?>
<!DOCTYPE svg PUBLIC "-//W3C//DTD SVG 20010904//EN"
 "http://www.w3.org/TR/2001/REC-SVG-20010904/DTD/svg10.dtd">
<svg version="1.0" xmlns="http://www.w3.org/2000/svg"
 width="395.000000pt" height="395.000000pt" viewBox="0 0 395.000000 395.000000"
 preserveAspectRatio="xMidYMid meet">
<metadata>
Created by potrace 1.11, written by Peter Selinger 2001-2013
</metadata>
<g transform="translate(0.000000,395.000000) scale(0.100000,-0.100000)"
fill="#000000" stroke="none">
<path d="M2048 3870 c-457 -42 -866 -319 -1076 -727 -58 -113 -102 -238 -129
-363 -25 -119 -25 -391 0 -510 119 -560 547 -979 1101 -1075 114 -19 333 -19
456 0 96 16 271 69 334 102 l34 18 -617 403 c-339 221 -707 462 -819 536
l-203 133 636 734 636 734 -38 6 c-74 12 -229 17 -315 9z"/>
<path d="M1817 2769 c-48 -5 -129 -20 -180 -33 -95 -24 -257 -84 -257 -95 0
-3 363 -245 807 -537 444 -292 809 -536 811 -542 1 -5 -281 -335 -628 -733
-346 -398 -630 -726 -630 -730 0 -23 315 -25 450 -4 448 73 854 396 1025 818
269 658 -12 1404 -650 1725 -212 106 -505 157 -748 131z"/>
</g>
</svg>
